# Blender v2.90.1 OBJ File: 'ageax.blend'
# www.blender.org
mtllib obstaclax.mtl
o Cube.021_Cube.048
v -1.000001 -0.378310 1.000000
v -1.000001 -0.378310 -1.000000
v 0.999999 -0.378310 1.000000
v 0.999999 -0.378310 -1.000000
v -0.778050 0.222492 0.778049
v -1.000001 0.155818 1.000000
v -0.778050 0.222492 -0.778049
v -1.000001 0.155818 -1.000000
v 0.778049 0.222492 0.778049
v 0.999999 0.155818 1.000000
v 0.778049 0.222492 -0.778049
v 0.999999 0.155818 -1.000000
vt 0.652744 0.527744
vt 0.847256 0.527744
vt 0.847256 0.722256
vt 0.652744 0.722256
vt 0.375000 0.500000
vt 0.597256 0.500000
vt 0.597256 0.750000
vt 0.375000 0.750000
vt 0.375000 0.000000
vt 0.597256 0.000000
vt 0.597256 0.250000
vt 0.375000 0.250000
vt 0.125000 0.500000
vt 0.125000 0.750000
vt 0.875000 0.500000
vt 0.875000 0.750000
vt 0.625000 0.500000
vt 0.625000 0.750000
vt 0.597256 1.000000
vt 0.375000 1.000000
vn 0.0000 1.0000 0.0000
vn 1.0000 0.0000 0.0000
vn -1.0000 0.0000 0.0000
vn 0.0000 -1.0000 0.0000
vn 0.0000 0.0000 -1.0000
vn -0.2877 0.9577 0.0000
vn 0.0000 0.9577 -0.2877
vn 0.2877 0.9577 0.0000
vn 0.0000 0.9577 0.2877
vn 0.0000 0.0000 1.0000
usemtl None
s off
f 11/1/1 7/2/1 5/3/1 9/4/1
f 4/5/2 12/6/2 10/7/2 3/8/2
f 1/9/3 6/10/3 8/11/3 2/12/3
f 2/13/4 4/5/4 3/8/4 1/14/4
f 2/12/5 8/11/5 12/6/5 4/5/5
f 5/3/6 7/2/6 8/15/6 6/16/6
f 7/2/7 11/1/7 12/17/7 8/15/7
f 11/1/8 9/4/8 10/7/8 12/6/8
f 9/4/9 5/3/9 6/16/9 10/18/9
f 3/8/10 10/7/10 6/19/10 1/20/10
